<svg xmlns="http://www.w3.org/2000/svg" viewBox="0 0 292.89 292.93"><title>Artboard 1</title><rect width="292.89" height="292.93" style="fill:#fff"/><rect width="292.89" height="292.93" style="fill:#e31837"/><polygon points="292.89 259.51 0 0 0 13.91 292.89 261.77 292.89 259.51" style="fill:#fff"/><polygon points="202 292.93 292.89 233.04 292.89 228.26 198.78 292.93 202 292.93" style="fill:#fff"/><polygon points="215 292.93 292.89 205.26 292.89 198.38 212.65 292.93 215 292.93" style="fill:#fff"/><polygon points="226.76 292.93 292.89 160.98 292.89 148.34 255.22 228.31 255.2 228.97 250.72 239.09 250.19 238.98 224.83 292.93 226.76 292.93" style="fill:#fff"/><polygon points="238.75 292.93 250.44 238.19 250.12 237.48 252.69 226.34 253.02 226.13 292.89 46.56 292.89 0 236.99 292.93 238.75 292.93" style="fill:#fff"/><polygon points="251.8 292.93 234.59 0 224.09 0 250.06 292.93 251.8 292.93" style="fill:#fff"/><polygon points="269.23 292.93 251.35 239.05 250.89 238.82 250.2 236.72 250.19 235.56 171.97 0 160.92 0 267.4 292.93 269.23 292.93" style="fill:#fff"/><polygon points="292.89 292.93 99.81 0 87.15 0 250.27 234.83 250.66 234.82 251.93 236.66 251.98 237.3 290.64 292.93 292.89 292.93" style="fill:#fff"/><path d="M148.73,215.57c14.37,0,20.33,5.54,20.33,13.63,0,10.38-10.39,12.45-11.17,12.65l12.34,24h-11.6s-6.58-13.78-8.36-17.49S147.5,243,143.74,243h-2.23v22.82h-10.4v-50.3Zm-7.22,22.84h5.16c7.84,0,12.72-3.11,12.72-9.26,0-5.3-4.37-8.93-12.72-8.93h-5.16Z" style="fill:#fff"/><path d="M46.87,215.57c16.27,0,27.29,8.66,27.29,24.63,0,16.18-9.55,25.66-26.43,25.66H27.11v-50.3H46.87m-9.36,40.56c.11,5,1.2,5.13,6.8,5.13,13.11,0,18.83-9,18.83-21,0-13.35-8-20.14-20.62-20.14h-5Z" style="fill:#fff"/><path d="M111.31,240.16c1.78.41,11.79,1.73,11.79,11.86,0,9.31-8.4,13.85-19,13.85H83.23v-50.3h18.53c11.61,0,19.73,4,19.73,13,0,8.52-8.31,10.77-10.17,11.4Zm-17.74-2.05h6.11c6.23,0,11.35-3.25,11.35-9,0-4.55-3.65-8.93-11.65-8.93h-5.8Zm0,19c0,4,3.06,4.15,6.93,4.15,6.68,0,11.77-3.72,11.77-9.27,0-5.3-3.65-8.91-11.75-8.91h-7Z" style="fill:#fff"/><path d="M207,222.93a25.87,25.87,0,0,0-13.08-3.5c-6.57,0-9.87,3.07-9.87,6.51,0,4.94,5.6,7,12.77,9.94,9.17,3.75,14.59,8.44,14.59,15.34,0,10.47-9.21,15.53-20.53,15.53-9.88,0-15.66-3.43-16.09-3.69l2.09-4.74a26.06,26.06,0,0,0,13.34,3.61c8.48,0,12.19-3.82,12.19-7.7,0-4.84-6.22-7.28-12-9.76-7-3-14.39-6.5-14.39-15.54,0-7.78,6.17-14.35,17.85-14.35a31.33,31.33,0,0,1,15.23,3.67Z" style="fill:#fff"/><rect x="240.99" y="260.95" width="3.41" height="3.1" style="fill:#fff"/></svg>