<?xml version="1.0" encoding="UTF-8" standalone="no"?>
<svg width="18px" height="17px" viewBox="0 0 18 17" version="1.1" xmlns="http://www.w3.org/2000/svg" xmlns:xlink="http://www.w3.org/1999/xlink">
    <!-- Generator: Sketch 40.1 (33804) - http://www.bohemiancoding.com/sketch -->
    <title>search-16x16</title>
    <desc>Created with Sketch.</desc>
    <defs></defs>
    <g id="Homepage-#1" stroke="none" stroke-width="1" fill="none" fill-rule="evenodd">
        <g id="Normal-State" transform="translate(-216.000000, -4731.000000)" fill="#FFFFFF">
            <g id="search-16x16" transform="translate(216.000000, 4731.000000)">
                <path d="M6.65812819,0.136843002 C4.02160862,0.132188163 1.6420265,1.66800344 0.629744761,4.02764521 C-0.382536979,6.38728698 0.172004316,9.10566536 2.03460805,10.914328 C3.89721178,12.7229906 6.70075521,13.2654467 9.13704617,12.2885747 C11.5733371,11.3117028 13.162178,9.00804624 13.1621824,6.4525395 C13.165334,4.77857137 12.4814789,3.17211836 11.2613904,1.98736365 C10.0413018,0.802608953 8.38516898,0.136840215 6.65812819,0.136843002 L6.65812819,0.136843002 Z M6.75307789,10.4904438 C4.479758,10.4776978 2.64443817,8.68670595 2.64665955,6.48320663 C2.64888092,4.27970731 4.48780827,2.49219535 6.76114952,2.48375553 C9.03449076,2.47531571 10.8874912,4.24912132 10.9071271,6.4525395 C10.9102808,7.52239907 10.4740159,8.54948763 9.69463847,9.30707409 C8.91526105,10.0646606 7.85685972,10.4904482 6.75307789,10.4904438 L6.75307789,10.4904438 Z" id="Shape"></path>
                <polygon id="Shape" points="11.2618597 8.67368421 17.5389618 14.9894737 15.3669541 16.9894737 9.1441522 10.6631579"></polygon>
            </g>
        </g>
    </g>
</svg>