<?xml version="1.0" encoding="UTF-8" standalone="no"?>
<svg width="20px" height="22px" viewBox="0 0 20 22" version="1.1" xmlns="http://www.w3.org/2000/svg" xmlns:xlink="http://www.w3.org/1999/xlink">
    <!-- Generator: Sketch 40.1 (33804) - http://www.bohemiancoding.com/sketch -->
    <title>share-alt</title>
    <desc>Created with Sketch.</desc>
    <defs></defs>
    <g id="Page-1" stroke="none" stroke-width="1" fill="none" fill-rule="evenodd">
        <g id="Icons-Social" transform="translate(-170.000000, -211.000000)" fill="#FFFFFF">
            <g id="share-alt" transform="translate(170.000000, 211.000000)">
                <path d="M16.6666667,7.7 C15.7777778,7.7 15,8.03 14.4444444,8.58 L6.55555556,4.07 C6.66666667,3.85 6.66666667,3.52 6.66666667,3.3 C6.66666667,1.43 5.22222222,0 3.33333333,0 C1.44444444,0 0,1.43 0,3.3 C0,5.17 1.44444444,6.6 3.33333333,6.6 C4.22222222,6.6 5,6.27 5.55555556,5.72 L13.4444444,10.23 C13.3333333,10.45 13.3333333,10.78 13.3333333,11 C13.3333333,11.22 13.3333333,11.55 13.4444444,11.77 L5.55555556,16.39 C5,15.84 4.22222222,15.51 3.33333333,15.51 C1.55555556,15.51 0.111111111,16.94 0.111111111,18.7 C0.111111111,20.46 1.55555556,21.89 3.33333333,21.89 C5.11111111,21.89 6.55555556,20.46 6.55555556,18.7 C6.55555556,18.48 6.55555556,18.26 6.44444444,17.93 L14.3333333,13.31 C14.8888889,13.86 15.6666667,14.19 16.5555556,14.19 C18.4444444,14.19 19.8888889,12.76 19.8888889,10.89 C19.8888889,9.02 18.5555556,7.7 16.6666667,7.7 L16.6666667,7.7 Z" id="Shape"></path>
            </g>
        </g>
    </g>
</svg>