<?xml version="1.0" encoding="UTF-8" standalone="no"?>
<svg width="21px" height="24px" viewBox="0 0 21 24" version="1.1" xmlns="http://www.w3.org/2000/svg" xmlns:xlink="http://www.w3.org/1999/xlink">
    <!-- Generator: Sketch 39.1 (31720) - http://www.bohemiancoding.com/sketch -->
    <title>share-alt</title>
    <desc>Created with Sketch.</desc>
    <defs></defs>
    <g id="Press-Release-Page" stroke="none" stroke-width="1" fill="none" fill-rule="evenodd">
        <g id="Press-Release-#2" transform="translate(-1889.000000, -4612.000000)" fill="#A5A9AD">
            <g id="Page-Footer" transform="translate(-12.000000, 4612.000000)">
                <g id="share-alt" transform="translate(1901.000000, 0.000000)">
                    <path d="M17.5,8.4 C16.5666667,8.4 15.75,8.76 15.1666667,9.36 L6.88333333,4.44 C7,4.2 7,3.84 7,3.6 C7,1.56 5.48333333,0 3.5,0 C1.51666667,0 0,1.56 0,3.6 C0,5.64 1.51666667,7.2 3.5,7.2 C4.43333333,7.2 5.25,6.84 5.83333333,6.24 L14.1166667,11.16 C14,11.4 14,11.76 14,12 C14,12.24 14,12.6 14.1166667,12.84 L5.83333333,17.88 C5.25,17.28 4.43333333,16.92 3.5,16.92 C1.63333333,16.92 0.116666667,18.48 0.116666667,20.4 C0.116666667,22.32 1.63333333,23.88 3.5,23.88 C5.36666667,23.88 6.88333333,22.32 6.88333333,20.4 C6.88333333,20.16 6.88333333,19.92 6.76666667,19.56 L15.05,14.52 C15.6333333,15.12 16.45,15.48 17.3833333,15.48 C19.3666667,15.48 20.8833333,13.92 20.8833333,11.88 C20.8833333,9.84 19.4833333,8.4 17.5,8.4 L17.5,8.4 Z" id="Shape"></path>
                </g>
            </g>
        </g>
    </g>
</svg>