<?xml version="1.0" encoding="UTF-8" standalone="no"?>
<svg width="20px" height="14px" viewBox="0 0 20 14" version="1.1" xmlns="http://www.w3.org/2000/svg" xmlns:xlink="http://www.w3.org/1999/xlink">
    <!-- Generator: Sketch 39.1 (31720) - http://www.bohemiancoding.com/sketch -->
    <title>visibility copy</title>
    <desc>Created with Sketch.</desc>
    <defs></defs>
    <g id="Search-Results-Page-2" stroke="none" stroke-width="1" fill="none" fill-rule="evenodd">
        <g id="Search-Results-1-Copy" transform="translate(-1211.000000, -981.000000)" fill="#C8C8C8">
            <g id="Results-cards" transform="translate(172.000000, 334.000000)">
                <g id="Card---Issuer" transform="translate(0.000000, 344.000000)">
                    <g id="Action-Buttons-Copy" transform="translate(1039.000000, 302.000000)">
                        <g id="visibility-copy" transform="translate(0.000000, 1.000000)">
                            <path d="M10,0.4375 C5.45454545,0.4375 1.54545455,3.15 0,7 C1.54545455,10.85 5.45454545,13.5625 10,13.5625 C14.5454545,13.5625 18.4545455,10.85 20,7 C18.4545455,3.15 14.5454545,0.4375 10,0.4375 L10,0.4375 Z M10,11.375 C7.45454545,11.375 5.45454545,9.45 5.45454545,7 C5.45454545,4.55 7.45454545,2.625 10,2.625 C12.5454545,2.625 14.5454545,4.55 14.5454545,7 C14.5454545,9.45 12.5454545,11.375 10,11.375 L10,11.375 Z M10,4.375 C8.45454545,4.375 7.27272727,5.5125 7.27272727,7 C7.27272727,8.4875 8.45454545,9.625 10,9.625 C11.5454545,9.625 12.7272727,8.4875 12.7272727,7 C12.7272727,5.5125 11.5454545,4.375 10,4.375 L10,4.375 Z" id="Shape"></path>
                        </g>
                    </g>
                </g>
            </g>
        </g>
    </g>
</svg>